<svg width="42" height="47" viewBox="0 0 42 47" fill="none" xmlns="http://www.w3.org/2000/svg">
<path d="M21.2246 0.184443C20.7986 -0.0614811 20.2737 -0.0614811 19.8477 0.184443L16.684 2.01102V18.0961L34.4663 7.82949L21.2246 0.184443Z" fill="#BFF747"/>
<path d="M40.3838 11.246L37.2202 9.41951L23.29 17.462L41.0722 27.7285V12.4384C41.0722 11.9465 40.8098 11.4919 40.3838 11.246Z" fill="#BFF747"/>
<path d="M27.1422 43.3991L40.3838 35.754C40.8098 35.508 41.0722 35.0535 41.0722 34.5616V30.9085L27.1422 22.8661V43.3991Z" fill="#BFF747"/>
<path d="M19.8476 46.8156C20.2736 47.0615 20.7985 47.0615 21.2246 46.8156L24.3883 44.989V28.904L6.60596 39.1706L19.8476 46.8156Z" fill="#BFF747"/>
<path d="M0 19.2715V34.5616C0 35.0535 0.262448 35.5081 0.688479 35.754L3.85208 37.5805L17.7822 29.538L0 19.2715Z" fill="#BFF747"/>
<path d="M13.93 3.60086L0.688479 11.246C0.262448 11.492 0 11.9465 0 12.4384V16.0915L13.93 24.134V3.60086Z" fill="#BFF747"/>
</svg>
